<?xml version="1.0" encoding="iso-8859-1"?>
<!-- Generator: Adobe Illustrator 19.0.0, SVG Export Plug-In . SVG Version: 6.00 Build 0)  -->
<svg version="1.1" id="Layer_1" style="width: 20px; display: block; height: 20px" xmlns="http://www.w3.org/2000/svg" xmlns:xlink="http://www.w3.org/1999/xlink" x="0px" y="0px"
	 viewBox="0 0 505.173 505.173" style="enable-background:new 0 0 505.173 505.173;" xml:space="preserve">
<path style="fill:currentColor;" d="M251.733,64.853c26.453-26.453,62.293-42.667,102.4-42.667c80.213,0,145.067,64.853,145.067,145.067
	s-68.267,213.333-247.467,315.733C72.533,380.587,4.267,247.467,4.267,167.253S69.12,22.187,149.333,22.187
	c28.16,0,54.613,7.68,76.8,22.187C226.133,44.373,244.053,53.76,251.733,64.853"/>
<path style="fill:#51565F;" d="M251.733,487.253c-0.853,0-1.707,0-1.707-0.853C77.653,388.267,0,255.147,0,167.253
	C0,85.333,67.413,17.92,149.333,17.92c28.16,0,55.467,7.68,79.36,23.04c1.707,0.853,2.56,4.267,1.707,5.973
	c-0.853,1.707-4.267,2.56-5.973,1.707c-22.187-13.653-47.787-21.333-74.24-21.333c-77.653,0-140.8,63.147-140.8,140.8
	c0,85.333,75.093,214.187,243.2,310.613c168.107-96.427,243.2-225.28,243.2-310.613c0-77.653-63.147-140.8-140.8-140.8
	c-55.467,0-105.813,32.427-128,82.773c-0.853,2.56-3.413,3.413-5.973,1.707c-2.56-0.853-3.413-3.413-1.707-5.973
	C243.2,52.054,296.96,17.921,355.84,17.921c81.92,0,149.333,67.413,149.333,149.333c0,87.893-76.8,221.013-250.027,319.147
	C253.44,487.253,252.587,487.253,251.733,487.253z M444.587,145.92c-1.707,0-3.413-0.853-4.267-3.413
	c-8.533-29.867-32.427-53.76-61.44-61.44c-2.56-0.853-3.413-3.413-2.56-5.12c0.853-1.707,3.413-3.413,5.12-2.56
	c32.427,9.387,58.88,34.987,67.413,67.413c0.853,2.56-0.853,4.267-2.56,5.12C445.44,145.92,444.587,145.92,444.587,145.92z"/>
<g>
</g>
<g>
</g>
<g>
</g>
<g>
</g>
<g>
</g>
<g>
</g>
<g>
</g>
<g>
</g>
<g>
</g>
<g>
</g>
<g>
</g>
<g>
</g>
<g>
</g>
<g>
</g>
<g>
</g>
</svg>
